Coordinates
version=1
nRows=18
nColumns=38
inDegrees=yes

Units are S.I. units (second, meters, Newtons, ...)
Angles are in degrees.

endheader
time	pelvis_tilt	pelvis_list	pelvis_rotation	pelvis_tx	pelvis_ty	pelvis_tz	hip_flexion_r	hip_adduction_r	hip_rotation_r	knee_angle_r	ankle_angle_r	subtalar_angle_r	mtp_angle_r	hip_flexion_l	hip_adduction_l	hip_rotation_l	knee_angle_l	ankle_angle_l	subtalar_angle_l	mtp_angle_l	lumbar_extension	lumbar_bending	lumbar_rotation	arm_flex_r	arm_add_r	arm_rot_r	elbow_flex_r	pro_sup_r	wrist_flex_r	wrist_dev_r	arm_flex_l	arm_add_l	arm_rot_l	elbow_flex_l	pro_sup_l	wrist_flex_l	wrist_dev_l
      1.39000000	      3.35712296	      3.18206976	     -4.94328620	      0.16712758	      0.92810055	     -0.26638712	      1.45762213	     -8.91325708	     -5.47451527	    -58.14268914	     -8.52526075	    -10.68066202	      0.00000000	     15.89516357	      3.27528724	     -8.51343603	    -25.51048740	      6.27634833	     -9.71172478	      0.00000000	    -13.92923864	     -3.14680256	      1.55678707	      3.46216743	     -7.24790431	     44.42307100	     27.07366173	     42.98664576	      0.00000000	      0.00000000	     -4.56594874	     -4.20190248	     43.86702175	     18.47070427	     42.98664576	      0.00000000	      0.00000000
      1.40000000	      3.58735836	      3.14352883	     -4.96136831	      0.17755570	      0.92911960	     -0.26775580	      3.13408103	     -8.90268076	     -5.02478702	    -60.61797763	     -8.01200548	    -11.19543360	      0.00000000	     14.93015172	      3.47355146	     -8.31560804	    -25.53239111	      7.08180286	     -9.79220410	      0.00000000	    -14.26559246	     -3.04073296	      1.06207446	      3.32283167	     -7.23189096	     44.44007354	     27.00213302	     42.99563530	      0.00000000	      0.00000000	     -3.82474910	     -4.27153214	     43.84706625	     18.62696107	     42.99563530	      0.00000000	      0.00000000
      1.41000000	      3.67879516	      3.16200971	     -4.94069009	      0.18775903	      0.93029288	     -0.26904697	      4.89055975	     -8.88601574	     -4.64664579	    -62.74655557	     -7.18309225	    -11.54456138	      0.00000000	     13.98523614	      3.69733181	     -8.25153123	    -25.25143595	      7.66287478	     -9.74858640	      0.00000000	    -14.42069521	     -2.99041995	      0.59960629	      3.09301423	     -7.18138102	     44.46568671	     26.84876199	     43.00961455	      0.00000000	      0.00000000	     -2.98370554	     -4.40810344	     43.86004426	     18.85652894	     43.00961455	      0.00000000	      0.00000000
      1.42000000	      3.85314150	      3.14071149	     -4.93209442	      0.19822870	      0.93182131	     -0.27028175	      6.48117428	     -8.80644197	     -4.30104127	    -64.51520068	     -6.39575291	    -11.60131254	      0.00000000	     12.92846135	      3.88337397	     -8.20238925	    -24.95101277	      8.14318836	     -9.76462205	      0.00000000	    -14.62859398	     -2.90305037	      0.19204086	      2.81284110	     -7.11757679	     44.49698870	     26.60688843	     43.02886478	      0.00000000	      0.00000000	     -2.16360884	     -4.54720239	     43.92874137	     19.15928731	     43.02886478	      0.00000000	      0.00000000
      1.43000000	      3.93388125	      3.00666615	     -4.77577041	      0.20839053	      0.93337064	     -0.27153726	      8.11888087	     -8.67074002	     -4.23867595	    -65.99053585	     -5.27225278	    -11.12824132	      0.00000000	     11.87470674	      3.96477155	     -8.00308744	    -24.46928746	      8.44015271	     -9.85749398	      0.00000000	    -14.75425685	     -2.65413244	     -0.28886968	      2.56504331	     -7.01003387	     44.54099335	     26.24539636	     43.06109363	      0.00000000	      0.00000000	     -1.26585982	     -4.72447663	     44.09351486	     19.58569868	     43.06109363	      0.00000000	      0.00000000
      1.44000000	      3.99158756	      2.75343272	     -4.55517824	      0.21837544	      0.93501221	     -0.27270858	      9.66195799	     -8.24768666	     -4.15697528	    -67.00809316	     -4.19041344	    -11.24025775	      0.00000000	     10.90783002	      3.90738595	     -7.72381886	    -24.07307145	      8.84022636	     -9.81616473	      0.00000000	    -14.86042762	     -2.27305286	     -0.83204596	      2.34116707	     -6.95818552	     44.57199284	     26.14146121	     43.06840520	      0.00000000	      0.00000000	     -0.32431618	     -4.82486837	     44.09065106	     19.80209718	     43.06840520	      0.00000000	      0.00000000
      1.45000000	      3.94414951	      2.49546339	     -4.36369011	      0.22827367	      0.93655930	     -0.27388623	     11.27199665	     -7.89327496	     -4.14133891	    -67.74576528	     -2.71740234	    -10.58781904	      0.00000000	      9.98884477	      3.83931286	     -7.47299826	    -23.51626858	      9.25348418	     -9.72810849	      0.00000000	    -14.84711666	     -1.87620794	     -1.12762723	      1.90280294	     -6.91678537	     44.62312911	     25.83587682	     43.09086280	      0.00000000	      0.00000000	      0.69791156	     -4.95258263	     44.21314809	     20.18546571	     43.09086280	      0.00000000	      0.00000000
      1.46000000	      3.92622144	      2.22363421	     -4.16750252	      0.23814203	      0.93805585	     -0.27497156	     12.76013706	     -7.53052557	     -4.22101853	    -68.13438887	     -1.16271099	    -10.02971407	      0.00000000	      9.05860605	      3.75825013	     -7.11900258	    -23.02508051	      9.40988994	     -9.99238584	      0.00000000	    -14.84478594	     -1.46852093	     -1.52975406	      1.62753768	     -6.82855620	     44.68608005	     25.50322110	     43.12953930	      0.00000000	      0.00000000	      1.67909927	     -5.12816468	     44.45306012	     20.63117930	     43.12953930	      0.00000000	      0.00000000
      1.47000000	      3.86015796	      1.91491269	     -3.99313293	      0.24785362	      0.93949911	     -0.27594257	     14.20465353	     -7.08808429	     -4.34949455	    -68.11839208	      0.27846041	     -9.91868602	      0.00000000	      8.08463284	      3.60525162	     -6.84688485	    -22.34359214	      9.72452162	     -9.93718328	      0.00000000	    -14.79410508	     -1.02040610	     -1.88354499	      1.28779591	     -6.79886809	     44.73776297	     25.35203423	     43.14433522	      0.00000000	      0.00000000	      2.71284986	     -5.23832949	     44.50088358	     20.89888597	     43.14433522	      0.00000000	      0.00000000
      1.48000000	      3.81963868	      1.65055600	     -3.82606396	      0.25756691	      0.94079843	     -0.27693278	     15.46800666	     -6.69239990	     -4.49285844	    -67.75910569	      2.15508952	     -9.58535344	      0.00000000	      7.18877674	      3.48091308	     -6.73075041	    -21.80172013	      9.92009471	     -9.97930968	      0.00000000	    -14.75797230	     -0.62086759	     -2.19875846	      0.92065480	     -6.79041604	     44.79137245	     25.17104506	     43.16400940	      0.00000000	      0.00000000	      3.77033200	     -5.34131956	     44.59642131	     21.22795170	     43.16400940	      0.00000000	      0.00000000
      1.49000000	      3.67330956	      1.42730734	     -3.53160189	      0.26685370	      0.94185796	     -0.27797595	     16.91746808	     -6.40344890	     -4.76826326	    -67.18298388	      3.21631072	     -9.61186321	      0.00000000	      6.35526110	      3.38032388	     -6.49759000	    -21.11789280	     10.12725348	     -9.79674985	      0.00000000	    -14.69610874	     -0.23611269	     -2.58744752	      0.69752982	     -6.76925379	     44.82237681	     25.07959120	     43.17487117	      0.00000000	      0.00000000	      4.87204815	     -5.48206957	     44.61522301	     21.49947875	     43.17487117	      0.00000000	      0.00000000
      1.50000000	      3.62572941	      1.26674916	     -3.38970298	      0.27658317	      0.94289027	     -0.27887340	     18.14193666	     -6.13466520	     -4.88201817	    -66.26303454	      4.30782579	     -9.58462059	      0.00000000	      5.39103821	      3.34094819	     -6.43392063	    -20.43596900	     10.35573836	     -9.70779981	      0.00000000	    -14.65015002	      0.05040924	     -2.92852532	      0.38686676	     -6.77454281	     44.85399886	     24.97274451	     43.18349887	      0.00000000	      0.00000000	      5.94855783	     -5.55572643	     44.63673046	     21.79917262	     43.18349887	      0.00000000	      0.00000000
      1.51000000	      3.74016927	      1.10481402	     -3.18613875	      0.28617088	      0.94391704	     -0.27973903	     18.91120148	     -5.91868699	     -5.14318069	    -64.83785384	      5.91821269	     -9.25134727	      0.00000000	      4.25066825	      3.31792934	     -6.22382154	    -19.73408504	     10.58058269	     -9.71677822	      0.00000000	    -14.82180473	      0.30585525	     -3.23563074	      0.01907842	     -6.78126782	     44.90195250	     24.77632557	     43.21021120	      0.00000000	      0.00000000	      7.06461412	     -5.72608372	     44.85179448	     22.35892841	     43.21021120	      0.00000000	      0.00000000
      1.52000000	      3.58121473	      1.03966367	     -2.91812674	      0.29550808	      0.94439368	     -0.28070874	     20.01573774	     -5.72402582	     -5.30398844	    -63.27172466	      6.95274656	     -9.49664447	      0.00000000	      3.47943482	      3.35329322	     -6.13412543	    -19.11209271	     10.75417055	     -9.57958324	      0.00000000	    -14.69262927	      0.53412054	     -3.78416668	     -0.15385833	     -6.77197071	     44.92245467	     24.72271647	     43.21619106	      0.00000000	      0.00000000	      8.11374031	     -5.87805612	     44.83363677	     22.60393235	     43.21619106	      0.00000000	      0.00000000
      1.53000000	      3.66554923	      0.89925009	     -2.57328991	      0.30493563	      0.94507947	     -0.28164064	     20.61556174	     -5.56095650	     -5.70272137	    -61.24344297	      7.97851241	     -9.58582779	      0.00000000	      2.34567324	      3.37461604	     -5.58792221	    -18.31796625	     10.87188017	     -9.81714574	      0.00000000	    -14.85765633	      0.82566336	     -4.19487095	     -0.39196571	     -6.70557629	     45.06163101	     24.36153896	     43.31441056	      0.00000000	      0.00000000	      9.17156537	     -6.38875295	     45.63246709	     23.90332564	     43.31441056	      0.00000000	      0.00000000
      1.54000000	      3.62799666	      0.77965549	     -2.24068158	      0.31421599	      0.94544071	     -0.28253695	     21.87465628	     -5.80887676	     -7.05097170	    -59.56635312	      6.33284411	    -11.31675894	      0.00000000	      1.41956164	      3.33926514	     -5.37418583	    -17.66245732	     11.16648530	     -9.61811437	      0.00000000	    -14.90843957	      1.10067048	     -4.67120508	     -0.57714357	     -6.69788853	     45.12340581	     24.28042889	     43.33985793	      0.00000000	      0.00000000	     10.27206016	     -6.58472985	     45.69198516	     24.21270091	     43.33985793	      0.00000000	      0.00000000
      1.55000000	      3.42904716	      0.74386520	     -1.93052896	      0.32338973	      0.94539592	     -0.28334534	     22.73345350	     -5.83646301	     -7.68264184	    -57.14328947	      6.58916775	    -11.55424633	      0.00000000	      0.71424841	      3.36247904	     -5.21366882	    -17.06672240	     11.35873273	     -9.42605662	      0.00000000	    -14.77069348	      1.27404774	     -5.11011880	     -0.77482086	     -6.68973325	     45.15369315	     24.21869148	     43.34847772	      0.00000000	      0.00000000	     11.41483048	     -6.73416689	     45.66008206	     24.48743009	     43.34847772	      0.00000000	      0.00000000
      1.56000000	      3.43036306	      0.58303499	     -1.61462012	      0.33269824	      0.94531480	     -0.28397537	     22.79776381	     -5.39480649	     -7.58233867	    -53.92073475	      7.70132482	    -11.28511502	      0.00000000	     -0.23137918	      3.26315475	     -5.00416886	    -16.48993955	     11.76997331	     -9.34450643	      0.00000000	    -14.86625230	      1.57799592	     -5.50606367	     -1.03762695	     -6.66624702	     45.19903291	     24.09185338	     43.36638152	      0.00000000	      0.00000000	     12.51879037	     -6.90375985	     45.74558322	     24.98807838	     43.36638152	      0.00000000	      0.00000000
